<?xml version="1.0" standalone="no"?>
<!DOCTYPE svg PUBLIC "-//W3C//DTD SVG 20010904//EN"
 "http://www.w3.org/TR/2001/REC-SVG-20010904/DTD/svg10.dtd">
<svg version="1.0" xmlns="http://www.w3.org/2000/svg"
 width="615.000000pt" height="615.000000pt" viewBox="0 0 615.000000 615.000000"
 preserveAspectRatio="xMidYMid meet">
<metadata>
Created by potrace 1.11, written by Peter Selinger 2001-2013
</metadata>
<g transform="translate(0.000000,615.000000) scale(0.100000,-0.100000)"
fill="#000000" stroke="none">
<path d="M3617 5824 c-1 -1 -40 -5 -87 -8 -47 -3 -132 -9 -190 -13 -58 -4
-126 -7 -152 -8 -27 0 -48 -2 -48 -5 0 -3 -37 -6 -82 -7 -46 -1 -83 -3 -83 -4
0 0 -25 -2 -55 -3 -31 -1 -61 -5 -68 -10 -6 -4 -12 -4 -12 0 0 12 -55 -77 -76
-122 -10 -21 -21 -41 -24 -44 -4 -3 -18 -29 -32 -58 -24 -52 -25 -53 -43 -36
-35 36 -92 54 -153 49 -31 -3 -88 -7 -127 -10 -38 -2 -95 -7 -125 -10 -61 -5
-170 -14 -270 -21 -186 -12 -193 -14 -183 -41 4 -11 2 -14 -5 -9 -7 4 -10 -1
-7 -14 7 -35 -5 -50 -34 -45 -14 2 -31 11 -37 20 -6 8 -14 15 -18 15 -5 0 -27
18 -80 65 -40 35 -128 105 -165 130 -37 25 -53 30 -105 29 -61 -1 -184 -9
-306 -19 -36 -2 -101 -7 -145 -10 -146 -9 -229 -15 -290 -20 -33 -3 -100 -7
-150 -10 l-90 -6 -37 -41 c-31 -34 -36 -46 -32 -77 3 -20 7 -54 9 -76 2 -22 4
-40 5 -40 1 0 4 -13 5 -30 2 -16 6 -50 9 -75 8 -68 14 -120 21 -173 3 -26 7
-62 9 -80 20 -145 27 -207 29 -239 1 -21 4 -38 7 -38 3 0 6 -17 7 -37 0 -21 4
-63 8 -93 4 -30 8 -67 9 -82 1 -15 7 -33 14 -40 7 -7 12 -18 12 -25 0 -7 5
-13 10 -13 6 0 10 -6 10 -14 0 -8 16 -30 35 -49 19 -19 35 -40 35 -47 0 -6 4
-9 8 -6 5 3 30 -15 56 -39 26 -25 49 -45 52 -45 8 0 74 -69 74 -78 0 -5 -12
-15 -27 -23 -35 -18 -42 -27 -38 -53 4 -21 14 -104 20 -164 1 -18 5 -51 9 -75
3 -23 8 -69 11 -102 6 -57 8 -75 19 -155 3 -19 8 -62 11 -95 11 -97 11 -98 24
-137 7 -21 17 -38 22 -38 5 0 9 -7 9 -15 0 -8 7 -15 15 -15 13 0 13 -3 3 -20
-7 -11 -20 -22 -28 -25 -8 -3 -32 -21 -53 -40 -21 -19 -42 -35 -48 -35 -5 0
-9 -3 -9 -7 0 -5 -15 -18 -34 -31 -36 -25 -35 -21 -22 -134 3 -26 8 -62 10
-80 3 -18 8 -55 11 -83 3 -27 7 -61 10 -75 3 -22 9 -72 20 -170 1 -14 6 -50
10 -80 4 -30 9 -66 10 -80 12 -105 18 -139 32 -169 9 -18 16 -39 16 -47 0 -8
4 -14 9 -14 4 0 8 -4 8 -9 0 -5 5 -22 12 -38 6 -15 10 -34 9 -40 -1 -7 3 -13
9 -13 5 0 10 -7 10 -15 0 -8 4 -23 9 -33 24 -45 59 -141 54 -146 -4 -3 -1 -6
5 -6 6 0 13 -14 17 -30 4 -17 10 -28 15 -25 4 3 13 -2 20 -10 7 -8 18 -15 25
-15 8 0 15 -4 17 -10 2 -6 18 -5 43 1 22 6 49 10 60 10 10 0 24 4 31 10 9 7
19 -5 38 -47 14 -31 26 -60 26 -64 0 -7 27 -66 79 -170 14 -30 15 -41 5 -65
-7 -17 -10 -33 -7 -37 2 -5 0 -8 -5 -8 -22 0 -28 -59 -17 -175 3 -27 6 -67 7
-87 2 -21 5 -38 8 -38 3 0 6 -35 7 -78 2 -42 7 -86 12 -97 5 -11 21 -51 36
-90 15 -38 32 -81 38 -95 6 -14 11 -27 12 -30 2 -7 24 -61 32 -80 3 -8 7 -18
7 -22 1 -3 4 -10 9 -14 4 -4 7 -15 7 -25 0 -10 6 -24 13 -31 6 -7 13 -21 15
-31 2 -10 13 -39 24 -65 12 -26 22 -51 24 -57 1 -5 8 -23 15 -40 7 -16 12 -33
11 -37 -1 -5 2 -8 6 -8 5 0 9 -6 9 -12 0 -25 43 -109 52 -104 5 4 12 2 16 -4
4 -6 11 -8 16 -5 5 4 9 1 9 -5 0 -6 4 -8 10 -5 5 3 10 2 10 -4 0 -12 42 -7
100 12 25 9 65 21 90 28 25 7 50 14 55 15 6 2 17 5 25 7 8 2 22 7 30 10 8 3
29 9 45 13 41 10 45 11 48 14 1 1 10 3 20 5 10 2 51 13 90 25 40 12 83 24 97
27 13 2 30 9 36 14 7 5 16 9 20 8 5 -2 29 4 54 11 25 8 50 14 55 15 6 0 15 4
21 7 6 4 24 10 40 13 16 3 64 16 107 29 42 14 77 22 77 19 0 -3 7 0 15 7 8 6
19 9 24 6 5 -4 12 -2 15 3 4 5 24 12 46 16 22 4 42 11 46 16 3 5 9 7 14 4 11
-7 42 24 35 36 -4 5 -1 9 4 9 6 0 11 8 11 18 0 9 7 30 15 46 8 15 15 35 15 42
0 8 4 14 10 14 5 0 6 7 3 17 -5 12 -3 14 7 8 8 -5 11 -4 7 2 -5 8 17 74 58
178 9 22 12 31 14 43 0 4 9 8 19 9 9 0 32 4 50 8 26 6 32 4 32 -9 0 -9 7 -19
15 -22 8 -4 15 -12 15 -20 0 -11 6 -11 28 -3 15 6 38 13 52 15 14 3 32 7 40
11 17 7 36 11 65 16 11 2 25 5 30 9 9 5 54 17 65 17 3 0 31 9 63 20 31 11 57
18 57 16 0 -2 18 2 41 10 23 8 45 13 49 10 5 -3 11 -1 14 4 3 5 23 12 43 17
43 8 42 8 63 17 16 7 124 37 150 42 52 10 81 19 86 26 3 5 10 6 16 3 6 -4 8
-2 4 4 -3 6 -2 13 3 17 5 3 8 14 6 24 -5 29 11 43 51 44 30 1 46 -6 70 -28 37
-36 106 -95 110 -95 4 0 36 -26 72 -58 14 -12 29 -22 34 -22 5 0 6 -4 3 -10
-3 -5 0 -10 8 -10 8 0 18 -7 21 -15 4 -13 10 -14 26 -5 11 6 20 8 20 4 0 -3 7
-1 15 6 8 7 15 10 15 6 0 -3 17 1 38 9 20 9 38 16 40 16 1 -1 3 -1 5 0 1 0 10
2 19 4 36 7 274 76 288 84 8 4 23 7 33 5 9 -1 17 2 17 8 0 6 7 8 15 5 8 -4 17
-2 20 2 2 5 22 12 42 17 43 9 51 10 58 14 3 1 8 3 13 4 4 1 25 8 47 15 22 7
54 15 70 17 17 3 32 10 33 15 2 5 8 7 12 4 5 -3 25 1 45 9 19 8 36 15 38 14
11 -3 84 27 85 36 1 12 10 78 17 116 2 14 6 43 9 65 3 22 8 54 11 70 5 34 15
107 19 145 1 14 5 30 7 35 3 6 5 25 4 43 0 17 2 32 6 32 4 0 8 8 7 18 0 9 3
40 6 67 4 28 9 65 11 83 2 18 6 45 9 60 3 15 8 45 11 67 4 38 13 99 21 138 2
11 -11 33 -31 53 -19 19 -35 32 -35 29 0 -3 -18 13 -40 36 -22 23 -40 40 -40
37 0 -3 -20 13 -44 36 -24 22 -56 50 -70 61 -32 26 -37 98 -7 114 10 6 21 8
23 5 17 -17 35 46 52 180 3 21 8 41 11 44 2 3 0 11 -6 19 -6 7 -7 13 -2 13 9
0 13 20 16 87 1 24 4 43 7 43 3 0 6 8 6 18 1 9 5 49 9 87 5 39 8 82 8 98 0 15
3 27 7 27 3 0 7 17 8 38 2 46 9 117 12 117 1 0 3 14 5 30 2 17 5 47 8 67 2 21
0 35 -4 32 -5 -3 -9 0 -9 5 0 6 -6 10 -12 9 -7 -2 -12 3 -10 10 1 6 -4 11 -10
10 -12 -3 -13 13 -6 80 1 14 107 79 121 74 4 -1 7 3 7 10 0 6 3 8 6 5 4 -3 18
2 32 13 13 11 28 17 33 14 5 -3 9 -1 9 4 0 4 23 19 50 31 28 12 50 28 50 33 0
6 3 8 6 5 7 -6 63 22 65 33 0 3 3 14 5 25 2 11 7 38 9 60 3 22 8 51 11 65 4
14 8 41 10 60 2 19 6 51 9 70 9 62 17 114 20 145 2 17 4 30 5 30 1 0 3 11 5
25 2 25 12 101 21 155 10 71 15 102 19 140 2 22 7 51 10 65 3 14 8 48 11 75 3
28 8 61 11 75 3 14 6 42 7 62 0 21 3 38 6 38 3 0 7 12 8 28 1 15 4 47 8 72 9
66 10 64 -22 107 -26 37 -78 66 -144 80 -26 6 -45 11 -45 13 0 2 -38 11 -52
12 -7 1 -13 5 -13 10 0 4 -3 7 -7 6 -5 -1 -19 2 -33 6 -14 4 -63 19 -110 33
-47 14 -94 29 -105 33 -18 7 -163 53 -175 56 -3 0 -30 8 -60 17 -52 15 -111
15 -220 3 -19 -2 -64 -7 -100 -10 -163 -14 -233 -30 -242 -55 -2 -6 -15 -5
-33 4 -16 7 -76 29 -132 48 -56 19 -99 38 -95 42 4 5 2 5 -5 1 -7 -4 -28 0
-48 8 l-35 15 5 53 c11 104 10 113 -19 151 -25 33 -41 41 -160 78 -72 24 -132
42 -133 42 -1 -1 -32 9 -68 22 -36 13 -65 22 -65 19 0 -3 -10 1 -22 7 -19 10
-103 20 -111 13z"/>
</g>
</svg>
